<svg width="177.323" height="61.178" xmlns="http://www.w3.org/2000/svg">
 <defs>
  <style>.cls-1,.cls-2,.cls-4{fill:#fff}.cls-2{font-size:5px;font-family:Helvetica}.cls-3{fill:#ffd800}.cls-4{fill-rule:evenodd}</style>
 </defs>
 <g>
  <title>Layer 1</title>
  <path class="cls-1" d="m98.18201,4.735l0.01,9.594l-4.674,0l-2.244,3.908l6.921,-0.007l0.02,19.12c0.008,7.058 2.958,11.3 10.222,11.229a15.258,15.258 0 0 0 6.509,-1.652l-1.443,-3.837a12.3,12.3 0 0 1 -4.933,1.308c-4.591,0 -5.759,-2.8 -5.763,-7.053l-0.02,-19.119l10.965,-0.012l0,-3.906l-10.965,0.011l-0.01,-10.074l-4.595,0.49z" id="Caminho_1"/>
  <path class="cls-1" d="m37.357,29.325c0.882,-7.333 5.882,-11.451 12.666,-11.458s12.339,4.031 12.484,11.431l-25.15,0.027zm29.471,3.876c1.287,-13.364 -6.8,-19.456 -16.879,-19.446s-17.33,7.351 -17.319,17.494c0.011,10.827 7.487,17.6 17.561,17.593c5.345,-0.005 11.168,-2.136 14.522,-6.32l-3.086,-2.738c-2.4,3.018 -7.328,4.667 -11.441,4.671c-6.715,0.008 -12.2,-4.167 -12.826,-11.225l29.468,-0.029z" id="Caminho_2"/>
  <path class="cls-1" d="m31.417,48.245l-0.02,-19.051c-0.01,-10.143 -6.321,-15.345 -15.092,-15.335a13.612,13.612 0 0 0 -11.781,6.248l-0.143,-5.687l-4.386,0l0.035,33.854l4.592,-0.005l-0.019,-18.434c-0.007,-6.51 4.512,-11.586 11.09,-11.662c6.784,-0.007 11.037,3.827 11.044,11.091l0.02,18.982l4.66,-0.001z" id="Caminho_3"/>
  <path class="cls-1" d="m31.417,48.245l-0.02,-19.051c-0.01,-10.143 -6.321,-15.345 -15.092,-15.335a13.612,13.612 0 0 0 -11.781,6.248l-0.143,-5.687l-4.386,0l0.035,33.854l4.592,-0.005l-0.019,-18.434c-0.007,-6.51 4.512,-11.586 11.09,-11.662c6.784,-0.007 11.037,3.827 11.044,11.091l0.02,18.982l4.66,-0.001z" id="Caminho_4"/>
  <text x="0.612" y="56.452" class="cls-2" id="S">
   <tspan id="svg_1" y="0" x="0">S</tspan>
  </text>
  <text x="16.412" y="56.453" class="cls-2" id="H">
   <tspan id="svg_2" y="0" x="0">H</tspan>
  </text>
  <text x="32.914" y="56.453" class="cls-2" id="I">
   <tspan id="svg_3" y="0" x="0">I</tspan>
  </text>
  <text x="46.447" y="56.453" class="cls-2" id="P">
   <tspan id="svg_4" y="0" x="0">P</tspan>
  </text>
  <text x="62.488" y="56.453" class="cls-2" id="P-2">
   <tspan id="svg_5" y="0" x="0">P</tspan>
  </text>
  <text x="78.528" y="56.452" class="cls-2" id="I-2">
   <tspan id="svg_6" y="0" x="0">I</tspan>
  </text>
  <text x="92.061" y="56.453" class="cls-2" id="N">
   <tspan id="svg_7" y="0" x="0">N</tspan>
  </text>
  <text x="108.576" y="56.453" class="cls-2" id="G">
   <tspan id="svg_8" y="0" x="0">G</tspan>
  </text>
  <path class="cls-3" d="m77.93401,29.646l1.343,4.364l10.157,14.175l5.482,-0.006l0,-0.137l-12.764,-17.255l11.839,-16.254l0,-0.206l-5.551,0.006l-10.506,15.313z" id="Caminho_5"/>
  <path class="cls-3" d="m79.27101,27.637l-9.265,-13.285l-5.482,0.006l0,0.206l11.872,16.229l-12.728,17.422l5.483,-0.006l12.762,-17.1l-2.642,-3.472z" id="Caminho_6"/>
  <path class="cls-4" d="m134.00299,44.565l14.655,1.053l-24.206,15.56l1.3,-28.718l8.251,12.105z" id="Caminho_7"/>
  <path class="cls-4" d="m134.03901,16.595l-8.261,12.15l-1.32,-28.745l24.193,15.53l-14.612,1.065z" id="Caminho_8"/>
  <path class="cls-4" d="m158.161,30.489l-6.365,13.243l25.527,-13.282l-25.571,-13.137l6.409,13.176z" id="Caminho_9"/>
  <path class="cls-3" d="m144.12699,32.319l6.458,12.266l-0.58,0.34l-7.418,-11.652l0.008,-1.861l1.532,0.907z" id="Caminho_10"/>
  <path class="cls-3" d="m142.716,27.698l7.23,-11.505l0.588,0.351l-6.225,12.011l-1.616,0.924l0.023,-1.781z" id="Caminho_11"/>
  <path class="cls-3" d="m139.418,31.232l-13.671,-0.533l0,-0.687l13.613,-0.59l1.608,0.938l-1.55,0.872z" id="Caminho_12"/>
  <text transform="matrix(1.94196 0 0 0.858016 -12.2951 19.0817)" stroke="#000" font-style="normal" font-weight="normal" xml:space="preserve" text-anchor="start" font-family="'Poppins'" font-size="16" id="svg_9" y="48.22058" x="6.33292" stroke-width="0" fill="#ffffff">controll</text>
 </g>
</svg>